<?xml version="1.0" encoding="utf-8"?>
<!-- Generator: Adobe Illustrator 24.3.0, SVG Export Plug-In . SVG Version: 6.00 Build 0)  -->
<svg version="1.1" id="katman_1" xmlns="http://www.w3.org/2000/svg" xmlns:xlink="http://www.w3.org/1999/xlink" x="0px" y="0px"
	 viewBox="0 0 204 204" style="enable-background:new 0 0 204 204;" xml:space="preserve">
<style type="text/css">
	.st0{fill:url(#SVGID_1_);}
	.st1{fill:#FFFFFF;}
</style>
<linearGradient id="SVGID_1_" gradientUnits="userSpaceOnUse" x1="-12.4729" y1="103.4204" x2="228.0859" y2="102.5369" gradientTransform="matrix(1 0 0 -1 0 205)">
	<stop  offset="0" style="stop-color:#AA367C"/>
	<stop  offset="1" style="stop-color:#4A2FBD"/>
</linearGradient>
<path class="st0" d="M187.6,69.9c5.5-2,11.6,0.7,13.1,6.3c5.5,21.2,4.1,43.8-4.3,64.3c-9.7,23.8-28,43-51.3,53.9
	c-23.3,10.9-49.7,12.6-74.2,4.8c-24.5-7.8-45.1-24.5-57.7-46.9C0.6,130-3.2,103.7,2.7,78.7c5.9-25,20.9-46.8,42.2-61.2
	S92.1-2.7,117.4,1.2c21.9,3.3,42,13.7,57.4,29.4c4.1,4.2,3.3,10.8-1.3,14.5c-4.6,3.6-11.1,2.8-15.3-1.2c-12-11.6-27.3-19.2-44-21.8
	C94.1,18.9,73.6,23.6,56.7,35C39.8,46.4,27.9,63.7,23.2,83.5c-4.7,19.8-1.7,40.7,8.4,58.4c10,17.7,26.4,31,45.8,37.2
	c19.4,6.2,40.4,4.8,58.9-3.8c18.4-8.6,33-23.9,40.7-42.7c6.4-15.6,7.7-32.7,3.9-48.9C179.5,78,182.2,71.9,187.6,69.9z"/>
<path class="st1" d="M121.4,96c0-3.4-2.8-6.1-6.3-6.1c-3.6,0-6.3,2.7-6.3,6.1s2.8,6.1,6.3,6.1C118.6,102.1,121.4,99.4,121.4,96z
	 M117.1,96c0,1.3-0.9,2.1-2.1,2.1c-1.2,0-2.1-0.9-2.1-2.1s0.9-2.1,2.1-2.1C116.2,93.9,117.1,94.8,117.1,96z M134.9,90.3h-5.5
	L111,115h5.5L134.9,90.3z M124.5,109.2c0,3.4,2.8,6.1,6.3,6.1c3.6,0,6.3-2.7,6.3-6.1c0-3.4-2.8-6.1-6.3-6.1
	C127.3,103.2,124.5,105.8,124.5,109.2z M128.7,109.2c0-1.3,0.9-2.1,2.1-2.1s2.1,0.9,2.1,2.1c0,1.3-0.9,2.1-2.1,2.1
	S128.7,110.5,128.7,109.2z"/>
<path class="st1" d="M67.4,92c1.7-1.3,3.8-2,6.4-2s4.7,0.7,6.4,2c1.7,1.3,2.5,3,2.5,5c0,2-0.8,3.7-2.3,5.1c2.1,1.6,3.2,3.8,3.2,6.5
	c0,2.3-0.9,4.2-2.7,5.7c-1.8,1.5-4.2,2.3-7.1,2.3c-2.9,0-5.3-0.8-7.1-2.3c-1.8-1.5-2.7-3.4-2.7-5.7c0-2.7,1.1-4.8,3.2-6.5
	c-1.5-1.4-2.3-3.2-2.3-5.1C64.8,95,65.7,93.3,67.4,92z M71,110.9c0.9,0.6,1.8,0.9,2.8,0.9c1,0,1.9-0.3,2.8-0.9
	c0.9-0.6,1.3-1.4,1.3-2.5c0-1.1-0.4-2-1.3-2.5c-0.8-0.6-1.8-0.9-2.8-0.9c-1.1,0-2,0.3-2.8,0.9c-0.8,0.6-1.3,1.4-1.3,2.5
	C69.7,109.5,70.1,110.3,71,110.9z M71.3,99.7c0.7,0.6,1.5,0.9,2.4,0.9c0.9,0,1.7-0.3,2.4-0.9c0.7-0.6,1-1.3,1-2.2
	c0-0.9-0.3-1.6-1-2.2c-0.7-0.6-1.5-0.9-2.5-0.9c-1,0-1.8,0.3-2.5,0.9s-1,1.3-1,2.2C70.3,98.3,70.6,99.1,71.3,99.7z"/>
<path class="st1" d="M96.1,116.3c-3.5,0-6.1-1.2-7.9-3.6c-1.7-2.4-2.6-5.6-2.6-9.5c0-4,0.9-7.2,2.6-9.5c1.7-2.4,4.4-3.6,7.9-3.6
	c3.5,0,6.1,1.2,7.9,3.6c1.7,2.4,2.6,5.6,2.6,9.5c0,4-0.9,7.2-2.6,9.5C102.2,115.2,99.6,116.3,96.1,116.3z M92.3,97.1
	c-0.8,1.5-1.2,3.6-1.2,6.1c0,2.5,0.4,4.6,1.2,6.1c0.8,1.5,2,2.3,3.7,2.3c1.7,0,2.9-0.8,3.7-2.3c0.8-1.5,1.2-3.6,1.2-6.1
	c0-2.5-0.4-4.6-1.2-6.1c-0.8-1.5-2-2.3-3.7-2.3C94.4,94.8,93.1,95.6,92.3,97.1z"/>
</svg>
